<?xml version="1.0" encoding="utf-8"?>
<!-- Generator: Adobe Illustrator 22.0.1, SVG Export Plug-In . SVG Version: 6.00 Build 0)  -->
<svg version="1.1" id="图层_1" xmlns="http://www.w3.org/2000/svg" xmlns:xlink="http://www.w3.org/1999/xlink" x="0px" y="0px"
	 viewBox="0 0 766.1 178" style="enable-background:new 0 0 766.1 178;" xml:space="preserve">
<style type="text/css">
	.st0{fill:none;stroke:#FFFFFF;stroke-width:10.8;stroke-miterlimit:10;}
	.st1{fill:none;stroke:#909ABA;stroke-width:10.8;stroke-miterlimit:10;}
	.st2{fill:url(#SVGID_1_);}
	.st3{fill:url(#SVGID_2_);}
	.st4{fill:url(#SVGID_3_);}
	.st5{fill:url(#SVGID_4_);}
	.st6{fill:url(#SVGID_5_);}
	.st7{fill:url(#SVGID_6_);}
	.st8{fill:url(#SVGID_7_);}
	.st9{fill:url(#SVGID_8_);}
	.st10{fill:url(#SVGID_9_);}
	.st11{fill:url(#SVGID_10_);}
	.st12{fill:#C49E57;}
</style>
<g>
	<linearGradient id="SVGID_1_" gradientUnits="userSpaceOnUse" x1="56.4634" y1="14.1249" x2="87.8938" y2="14.1249">
		<stop  offset="0" style="stop-color:#E2BE61"/>
		<stop  offset="1" style="stop-color:#C49E57"/>
	</linearGradient>
	<polygon class="st2" points="62.5,29.1 72.2,24 81.9,29.1 80,18.3 87.9,10.6 77,9 72.2,-0.8 67.3,9 56.5,10.6 64.3,18.3 	"/>
	<linearGradient id="SVGID_2_" gradientUnits="userSpaceOnUse" x1="99.042" y1="62.2493" x2="116.3472" y2="62.2493">
		<stop  offset="0" style="stop-color:#E2BE61"/>
		<stop  offset="1" style="stop-color:#C49E57"/>
	</linearGradient>
	<polygon class="st3" points="102.3,70.5 107.7,67.7 113,70.5 112,64.5 116.3,60.3 110.4,59.4 107.7,54 105,59.4 99,60.3 
		103.4,64.5 	"/>
	<linearGradient id="SVGID_3_" gradientUnits="userSpaceOnUse" x1="0.5432" y1="167.5811" x2="55.1221" y2="167.5811">
		<stop  offset="0" style="stop-color:#E2BE61"/>
		<stop  offset="1" style="stop-color:#C49E57"/>
	</linearGradient>
	<path class="st4" d="M0.5,157.8v19.5h54.6c-3.8-1.7-7.4-3.5-11.1-5.3C29.9,165,16.6,158.5,0.5,157.8z"/>
	<linearGradient id="SVGID_4_" gradientUnits="userSpaceOnUse" x1="132.802" y1="170.4398" x2="155.7671" y2="170.4398">
		<stop  offset="0" style="stop-color:#E2BE61"/>
		<stop  offset="1" style="stop-color:#C49E57"/>
	</linearGradient>
	<path class="st5" d="M132.8,177.3h23v-13.8c-4.6,2.4-8.9,5.1-13.4,7.9C139.3,173.4,136.1,175.4,132.8,177.3z"/>
	<linearGradient id="SVGID_5_" gradientUnits="userSpaceOnUse" x1="0.5432" y1="155.3055" x2="155.7671" y2="155.3055">
		<stop  offset="0" style="stop-color:#E2BE61"/>
		<stop  offset="1" style="stop-color:#C49E57"/>
	</linearGradient>
	<path class="st6" d="M96.4,166.1c-20.7,0-36.9-8.7-52.6-17c-14-7.5-27.4-14.6-43.3-15.3V147c18.5,0.6,33.6,8.1,48.3,15.3
		c15.2,7.5,29.5,14.6,47.6,14.6c17.2,0,28.4-7.1,40.2-14.5c5.8-3.7,12-7.6,19.1-10.7v-11.5c-4.5,2.5-8.8,5.5-13.2,8.4
		C129.9,157.2,116.9,166.1,96.4,166.1z"/>
	<linearGradient id="SVGID_6_" gradientUnits="userSpaceOnUse" x1="0.5432" y1="88.688" x2="155.7671" y2="88.688">
		<stop  offset="0" style="stop-color:#E2BE61"/>
		<stop  offset="1" style="stop-color:#C49E57"/>
	</linearGradient>
	<path class="st7" d="M108,132.6c0,0-12.7-36.1-38.7-65.1S0.5,22.1,0.5,22.1v100.8c18.6,0.7,33.8,8.7,48.4,16.6
		c15.2,8.1,29.5,15.8,47.5,15.8c17.1,0,28.3-7.6,40.1-15.7c5.9-4,12.1-8.2,19.3-11.6V22.1c0,0-4.7,36.5-16.6,64
		C127.4,113.4,108,132.6,108,132.6z"/>
	<path class="st12" d="M200.8,19.6c0.8,0,2.9,0,4.8,0.5c4.4,1.3,6.3,2.6,9,9.6l30.7,76.7c2.4,6,3,7.8,4.5,7.8c1.3,0,1.8-2,5.3-9.5
		c2.9-6.1,8.5-19.7,16.1-37.9c6.4-15.4,12.6-30.4,14-33.9c3.4-8.5,5.3-10.6,6.9-11.8c2.4-1.5,5.1-1.5,6-1.5c1,0,1.5-0.3,1.5-0.9
		s-0.8-0.9-2.1-0.9c-3.6,0-9,0.4-9.8,0.4c-1.5,0-7.3-0.4-12.3-0.4c-2,0-2.8,0.2-2.8,1c0,0.6,0.6,0.8,1.4,0.8c1.4,0,3.3,0,4.8,0.5
		c1.3,0.6,1.6,1.9,1.6,2.9c0,1.1-0.5,2.9-1.1,4.8c-2.8,9-19.5,52.7-26.8,69.5L227,30.7c-1.4-3.5-2.5-6.9-2.5-8
		c0-0.9,0.2-1.9,1.6-2.5c1.1-0.5,3.4-0.6,4.8-0.6c0.9,0,1.3-0.3,1.3-0.9s-1.1-0.9-3.4-0.9c-4.8,0-10.1,0.4-11.4,0.4
		c-1.5,0-8.3-0.4-14.3-0.4c-2,0-3.3,0.1-3.3,0.9C199.8,19.2,200.1,19.6,200.8,19.6z"/>
	<path class="st12" d="M354.9,114.2c30.2,0,49.9-23.2,49.9-51.2c0-29.2-21-46.9-49.2-46.9c-34.6,0-49.3,28.7-49.3,48.9
		C306.3,87.6,320.6,114.2,354.9,114.2z M354.8,20.3c19.8,0,38.1,16.1,38.1,46.2c0,36.4-23.3,42.9-34.6,42.9
		c-22.5,0-40.1-18.8-40.1-47.9C318.2,34.1,333.9,20.3,354.8,20.3z"/>
	<path class="st12" d="M412.7,19.6c1.1,0,3.5,0.8,5.4,2c2.3,1.5,5.4,4.6,8.5,9.3c4.4,6.5,21.2,34,22,36.1c1.6,3.6,2.9,6.4,2.9,13.1
		v10.8c0,2,0,7.3-0.4,12.5c-0.3,3.6-1.4,6.4-3.9,6.9c-1.1,0.3-2.6,0.5-3.8,0.5c-0.8,0-1,0.4-1,0.8c0,0.8,0.6,1,2,1
		c3.8,0,11.6-0.4,12.3-0.4s8.5,0.4,15.4,0.4c1.4,0,2-0.4,2-1c0-0.4-0.2-0.8-1-0.8c-1.1,0-3.9-0.3-5.6-0.5c-3.8-0.5-4.9-3.3-5.1-6.9
		c-0.4-5.3-0.4-10.5-0.4-12.5V80c0-4.1,0-8,1.9-12.5c2.3-5.4,19.8-34.8,23.9-39.8c2.8-3.4,4.1-4.9,6.6-6.4c2-1.3,4.4-1.8,5.8-1.8
		c1,0,1.6-0.4,1.6-1c0-0.5-0.8-0.8-1.6-0.8c-2.4,0-11.4,0.4-12.1,0.4c-1,0-5-0.4-8.3-0.4c-1.3,0-2,0.2-2,0.8c0,0.6,0.8,0.9,1.9,1.3
		c1.5,0.4,2,1.8,2,3.5c0,1.6-0.5,3.8-2.1,6.4c-2.5,4.1-18.4,31.5-20.8,36.8c-2.3-3.6-21-35.9-23-39.6c-1-1.9-1.6-3.4-1.6-4.9
		c0-1,0.6-1.8,1.6-2.3c1.1-0.5,1.9-0.6,1.9-1.1c0-0.5-0.2-0.9-1.6-0.9c-4.9,0-9.6,0.4-10.5,0.4c-0.6,0-10-0.4-12.4-0.4
		c-1.1,0-1.6,0.4-1.6,0.9C411.5,19.3,412.1,19.6,412.7,19.6z"/>
	<path class="st12" d="M495.5,110.5c-1,0.1-2.1,0.3-3,0.3c-1.1,0-1.8,0.3-1.8,0.8c0,0.8,0.8,1,2.4,1c5.9,0,12.8-0.4,14.1-0.4
		s6.4,0.4,9.4,0.4c1.1,0,2.3-0.3,2.3-1c0-0.5-0.4-0.8-1.6-0.8c-0.4,0-0.8,0-1.1,0c-2.1,0-4.5-1.1-4.5-3.6c0-2.3,0.6-5.3,1.8-8.4
		l7.5-22.2c0.2-0.6,0.6-1,1.3-1h26.9c0.6,0,0.9,0.3,1.1,0.8l11.6,30.8c0.8,2,0,3.1-0.8,3.4c-0.5,0.1-0.9,0.4-0.9,0.9
		c0,0.8,1.4,0.8,3.8,0.9c8.6,0.3,17.8,0.3,19.7,0.3c1.4,0,2.5-0.3,2.5-1c0-0.6-0.6-0.8-1.4-0.8c-1,0-3-0.1-4.9-0.8
		c-2.6-0.8-6.3-2.8-10.8-13.9c-7.6-19-27.3-70.7-29.2-75.5c-1.5-3.9-2-4.5-2.8-4.5c-0.8,0-1.3,0.8-2.8,4.9L506,98.7
		C503.7,105,501.2,109.7,495.5,110.5z M523.1,70.2l11-33.8c0.6-1.9,1.3-1.9,1.9,0l11.9,33.8c0.1,0.5,0.1,0.9-0.5,0.9h-23.9
		C523.1,71,522.9,70.8,523.1,70.2z"/>
	<path class="st12" d="M607.1,100.8c13.9,12.1,31.7,13.4,41.2,13.4c7.3,0,18.5-1.4,26.5-5.6c1.5-0.9,1.6-1.1,1.6-6.8v-14
		c0-5.3,0-9,0.3-13c0.2-4.4,1.3-6.5,4.6-7.1c1.5-0.3,2.3-0.4,3.1-0.4c0.5,0,1-0.3,1-0.8c0-0.8-0.6-1-2-1c-3.8,0-11.6,0.4-12.3,0.4
		s-8.5-0.4-14.1-0.4c-1.4,0-2,0.2-2,1c0,0.5,0.5,0.8,1,0.8c1.1,0,3.3,0.1,4.3,0.4c5,1.4,5.6,2.8,5.6,12.9v21.3
		c0,2.1-0.9,3.5-2.5,4.4c-3.3,1.9-9.8,2.6-14.3,2.6c-11.5,0-22.9-3.8-32.8-13.4c-4.4-4.3-13.3-17-13.3-34.7c0-14.6,5.1-26,12.4-31.8
		c9.5-7.5,18.9-8.3,26.8-8.3c16.1,0,26.3,5.4,29.4,10.1c1.9,3,2.5,6.5,2.6,8.3c0.1,1.1,0.2,1.9,0.9,1.9c0.9,0,1.1-0.6,1.1-2.6
		c0-12.5,0.9-16,0.9-17.8c0-0.5-0.2-1-1.5-1.1c-3.1-0.1-7.5-0.6-10.1-1.3c-2.4-0.5-11.3-2.1-19.2-2.1c-9.6,0-22,0.9-33.3,7.9
		c-11.1,7-20.9,21.2-20.9,41.2C592.2,80.8,599.5,94.2,607.1,100.8z"/>
	<path class="st12" d="M707.6,19.6c1.1,0.1,2.8,0.1,3.6,0.4c4.1,0.9,5.1,2.9,5.4,7.1c0.2,4,0.2,7.5,0.2,27v22
		c0,11.1-0.1,17.5-0.2,22.4c-0.2,9.4-1.9,11.1-4.5,11.8c-0.9,0.3-1.6,0.3-2.9,0.4c-0.8,0.1-1.4,0.4-1.4,0.8c0,0.8,0.6,1,2,1
		c3.3,0.1,6.3-0.4,9.3-0.4c4.9,0,10.6,0.3,15.6,0.4c4.9,0.1,9,0.4,18.3,0.4c4.9,0,5.9,0,6.8-3.3c0.6-2.6,1.6-11.1,1.6-12.1
		c0-0.9,0-1.9-0.8-1.9c-0.6,0-0.9,0.5-1.1,1.9c-1,5.4-2.4,8-6.4,9.3c-3.4,1-7.5,1.1-11.3,1.1c-4.9,0-8.3-0.3-10.4-1.1
		c-3.1-1.3-3.9-4-4.1-9.1c-0.1-2.6,0-17.1,0-21.4v-11c0-0.5,0.3-0.9,0.9-0.9c2.1,0,14.5,0.3,17.9,0.6c4.5,0.5,6,2.3,6.5,4.1
		c0.4,1.1,0.5,2.4,0.5,3.5c0,1,0.1,2,0.9,2c0.5,0,0.8-0.6,0.9-1.9c0.1-1.8,0.1-4.6,0.5-8.5c0.4-4.1,1-6.3,1-7c0-0.8-0.3-1-0.6-1
		c-0.5,0-0.9,0.5-1.5,1.3c-1.3,1.5-2.9,1.9-6.3,2.1c-2.9,0.3-18.3,0.3-19.9,0.3c-0.6,0-0.8-0.4-0.8-1.3V24c0-0.9,0.3-1.3,0.8-1.3
		c1.4,0,15,0.1,17.2,0.4c5.5,0.5,8.1,1.8,9,4.6c0.4,1,0.6,2.5,0.6,4.1c0,1,0.3,1.6,1,1.6c0.5,0,0.9-0.9,1-2.1
		c0.3-3.3,0.4-5.6,0.5-7.5c0.2-3.5,1-5,1-5.9c0-0.6-0.1-1.1-0.5-1.1c-0.4,0-0.6,0.1-1.4,0.5s-3,0.6-5.8,0.8
		c-2.9,0.1-27.8,0.1-28.7,0.1c-7.9-0.4-11.3-0.4-14.1-0.4c-1.4,0-2,0.2-2,1C706,19.3,706.8,19.5,707.6,19.6z"/>
	<path class="st12" d="M213.4,176.9c-0.2,0-1.1-0.1-1.7-0.2c-1.2-0.2-1.5-1.1-1.6-2.2c-0.2-1.7-0.2-4.9-0.2-8.8v-7.1
		c0-6.3,0-7.5,0.1-8.8c0.1-1.4,0.4-2.1,1.5-2.3c0.5-0.1,0.7-0.1,1-0.1c0.2,0,0.3-0.1,0.3-0.2c0-0.2-0.2-0.3-0.6-0.3
		c-1.2,0-3.8,0.1-4,0.1s-2.8-0.1-4.1-0.1c-0.4,0-0.6,0.1-0.6,0.3c0,0.2,0.2,0.2,0.3,0.2c0.3,0,0.8,0,1.3,0.2
		c0.9,0.2,1.3,0.9,1.4,2.3c0.1,1.3,0.1,2.4,0.1,8.8v7.1c0,3.9,0,7.1-0.2,8.8c-0.2,1.2-0.4,2.1-1.2,2.3c-0.4,0.1-0.8,0.1-1.1,0.1
		c-0.4,0-0.4,0.1-0.4,0.2c0,0.2,0.2,0.3,0.6,0.3c1.2,0,3.8-0.1,4-0.1s2.8,0.1,5,0.1c0.4,0,0.6-0.1,0.6-0.3
		C213.9,177,213.8,176.9,213.4,176.9z"/>
	<path class="st12" d="M252.6,146.7c-1.7,0-3,0.1-3.5,0.1c-0.4,0-2.4-0.1-4.2-0.1c-0.5,0-0.8,0-0.8,0.3c0,0.2,0.1,0.3,0.6,0.3
		c0.4,0,1,0,1.7,0.2c1.3,0.3,1.5,1.2,1.6,3.9l0.4,20.6c-1.3-1.3-5.7-6.3-9.7-10.6c-6.3-6.7-12.3-13.2-12.9-13.9
		c-0.4-0.4-1.1-1.3-1.4-1.3c-0.3,0-0.4,0.4-0.4,2c0,7.9,0,2.6,0,17.3v6c0,3.7-0.2,4.9-1.2,5.2c-0.6,0.2-1.3,0.2-1.7,0.2
		c-0.2,0-0.3,0.1-0.3,0.2c0,0.3,0.2,0.3,0.6,0.3c1.8,0,3.5-0.1,3.9-0.1s2,0.1,4.3,0.1c0.5,0,0.7-0.1,0.7-0.3c0-0.2-0.1-0.2-0.3-0.2
		c-0.4,0-1.3,0-2-0.2c-1.1-0.3-1.5-1.4-1.6-4.7l-0.5-19.4c1.3,1.5,5.9,6.6,10.6,11.6c4.3,4.6,10.1,10.6,10.6,11
		c2.2,2.2,2.6,2.6,3,2.6c0.3,0,0.4-0.2,0.4-2.9l0.1-23.7c0-2.8,0.3-3.4,1.4-3.7c0.5-0.1,0.7-0.1,1.1-0.2c0.3,0,0.4-0.1,0.4-0.3
		C253.3,146.8,253,146.7,252.6,146.7z"/>
	<path class="st12" d="M283.8,146.5c-0.2,0-0.5,0.1-1.1,0.2c-0.6,0.1-1.6,0.2-2.9,0.2h-15.2c-0.5,0-2-0.1-3.2-0.2
		c-1.1-0.1-1.5-0.5-1.8-0.5c-0.2,0-0.3,0.5-0.4,0.8c-0.1,0.3-0.9,3.8-0.9,4.2c0,0.2,0.1,0.4,0.2,0.4c0.2,0,0.3-0.1,0.4-0.4
		c0.1-0.3,0.2-0.6,0.7-1.3c0.6-1,1.6-1.3,4.1-1.3c2,0,4,0,6-0.1v17.2c0,3.9,0,7.1-0.2,8.8c-0.2,1.2-0.4,2.1-1.2,2.2
		c-0.4,0.1-0.9,0.2-1.2,0.2c-0.2,0-0.3,0.1-0.3,0.2c0,0.2,0.2,0.3,0.6,0.3c1.2,0,3.8-0.1,4-0.1s2.8,0.1,5,0.1c0.4,0,0.7-0.1,0.7-0.3
		c0-0.1-0.1-0.2-0.3-0.2c-0.4,0-1.3-0.1-1.8-0.2c-1.2-0.2-1.5-1.1-1.6-2.2c-0.2-1.7-0.2-4.9-0.2-8.8v-17.2c1.7,0,3.4,0,5.1,0.1
		c3.9,0.1,4.9,1,5,2.2c0,0.2,0,0.3,0,0.4c0,0.6,0.1,0.7,0.3,0.7c0.2,0,0.3-0.2,0.3-0.5c0-0.4,0.1-3.2,0.1-4.5
		C284,146.7,284,146.5,283.8,146.5z"/>
	<path class="st12" d="M307.5,171.9c-0.2,0-0.3,0.2-0.4,0.6c-0.3,1.7-0.8,2.6-2.1,3c-1.1,0.3-2.4,0.4-3.7,0.4
		c-1.6,0-2.7-0.1-3.4-0.4c-1-0.4-1.3-1.3-1.3-3c0-0.9,0-5.6,0-6.9v-3.6c0-0.2,0.1-0.3,0.3-0.3c0.7,0,4.7,0.1,5.8,0.2
		c1.5,0.2,1.9,0.7,2.1,1.3c0.1,0.4,0.2,0.8,0.2,1.1c0,0.3,0,0.6,0.3,0.6c0.2,0,0.2-0.2,0.3-0.6c0-0.6,0-1.5,0.2-2.8
		c0.1-1.3,0.3-2,0.3-2.3s-0.1-0.3-0.2-0.3c-0.2,0-0.3,0.2-0.5,0.4c-0.4,0.5-0.9,0.6-2,0.7c-0.9,0.1-5.9,0.1-6.5,0.1
		c-0.2,0-0.2-0.1-0.2-0.4v-11.2c0-0.3,0.1-0.4,0.2-0.4c0.4,0,4.9,0,5.6,0.1c1.8,0.2,2.6,0.6,2.9,1.5c0.1,0.3,0.2,0.8,0.2,1.3
		c0,0.3,0.1,0.5,0.3,0.5c0.2,0,0.3-0.3,0.3-0.7c0.1-1.1,0.1-1.8,0.2-2.4c0.1-1.1,0.3-1.6,0.3-1.9c0-0.2,0-0.4-0.2-0.4
		c-0.1,0-0.2,0-0.4,0.2c-0.2,0.1-1,0.2-1.9,0.2c-0.9,0-9,0-9.3,0c-2.6-0.1-3.7-0.1-4.6-0.1c-0.4,0-0.6,0.1-0.6,0.3
		c0,0.2,0.2,0.2,0.5,0.2c0.4,0,0.9,0,1.2,0.1c1.3,0.3,1.7,0.9,1.7,2.3c0.1,1.3,0.1,2.4,0.1,8.8v7.1c0,3.6,0,5.7-0.1,7.3
		c-0.1,3-0.6,3.6-1.5,3.8c-0.3,0.1-0.5,0.1-0.9,0.1c-0.2,0-0.4,0.1-0.4,0.2c0,0.2,0.2,0.3,0.6,0.3c1.1,0,2-0.1,3-0.1
		c1.6,0,3.5,0.1,5.1,0.1c1.6,0,2.9,0.1,5.9,0.1c1.6,0,1.9,0,2.2-1.1c0.2-0.9,0.5-3.6,0.5-3.9C307.8,172.3,307.8,171.9,307.5,171.9z"
		/>
	<path class="st12" d="M376.8,146.7c-1.7,0-3,0.1-3.5,0.1c-0.4,0-2.4-0.1-4.2-0.1c-0.5,0-0.8,0-0.8,0.3c0,0.2,0.1,0.3,0.6,0.3
		c0.4,0,1,0,1.7,0.2c1.3,0.3,1.5,1.2,1.6,3.9l0.4,20.6c-1.3-1.3-5.7-6.3-9.7-10.6c-6.3-6.7-12.3-13.2-12.9-13.9
		c-0.4-0.4-1.1-1.3-1.4-1.3c-0.3,0-0.4,0.4-0.4,2c0,7.9,0,2.6,0,17.3v6c0,3.7-0.2,4.9-1.2,5.2c-0.6,0.2-1.3,0.2-1.7,0.2
		c-0.1,0-0.1,0-0.2,0.1c-0.1,0-0.1-0.1-0.2-0.1c-0.2,0-0.8,0-1.6-0.1c-1-0.2-2.8-0.6-5-2.9c-2.4-2.5-5.1-6.1-8.4-10.4
		c3.7-3.4,4.9-6.4,4.9-9.4c0-2.8-1.8-4.8-2.8-5.5c-2.2-1.5-4.9-1.8-7.4-1.8c-1.3,0-4.3,0.1-4.8,0.1c-0.2,0-2.8-0.1-4.6-0.1
		c-0.4,0-0.6,0.1-0.6,0.3c0,0.2,0.2,0.2,0.3,0.2c0.4,0,1.1,0,1.4,0.1c1.3,0.3,1.7,0.9,1.7,2.3c0.1,1.3,0.1,2.4,0.1,8.8v7.1
		c0,3.9,0,7.1-0.2,8.8c-0.2,1.2-0.4,2.1-1.2,2.2c-0.4,0.1-0.9,0.2-1.2,0.2c-0.2,0-0.3,0.1-0.3,0.2c0,0.2,0.2,0.3,0.6,0.3
		c1.2,0,3.8-0.1,3.8-0.1c0.2,0,2.8,0.1,5,0.1c0.4,0,0.6-0.1,0.6-0.3c0-0.1-0.1-0.2-0.3-0.2c-0.4,0-1.3-0.1-1.8-0.2
		c-1.2-0.2-1.5-1.1-1.6-2.2c-0.2-1.7-0.2-4.9-0.2-8.8v-1c0-0.2,0.1-0.3,0.3-0.3l5,0.1c0.2,0,0.4,0.1,0.5,0.2c0.8,1.1,2.7,3.8,4.4,6
		c2.3,3,3.7,5,5.5,6c1.1,0.6,2.1,0.8,4.3,0.8h2.9c0.4,0,0.7,0,0.8-0.1c0.1,0.1,0.3,0.1,0.5,0.1c1.8,0,3.5-0.1,3.9-0.1s2,0.1,4.3,0.1
		c0.5,0,0.7-0.1,0.7-0.3c0-0.2-0.1-0.2-0.3-0.2c-0.4,0-1.3,0-2-0.2c-1.1-0.3-1.5-1.4-1.6-4.7l-0.5-19.4c1.3,1.5,5.9,6.6,10.6,11.6
		c4.3,4.6,10.1,10.6,10.6,11c2.2,2.2,2.6,2.6,3,2.6c0.3,0,0.4-0.2,0.4-2.9l0.1-23.7c0-2.8,0.3-3.4,1.4-3.7c0.5-0.1,0.7-0.1,1.1-0.2
		c0.3,0,0.4-0.1,0.4-0.3C377.5,146.8,377.2,146.7,376.8,146.7z M328.8,162.4c-0.9,0.6-2.1,0.8-3,0.8c-1.8,0-3.7-0.3-4.3-0.6
		c-0.2-0.1-0.3-0.3-0.3-0.5v-13.3c0-0.2,0.1-0.4,0.3-0.5c0.4-0.1,1.5-0.2,2.7-0.2c4.3,0,7,3,7,8.1
		C331.3,159.2,330.3,161.4,328.8,162.4z"/>
	<path class="st12" d="M410.8,176.9c-0.3,0-1,0-1.6-0.2c-0.9-0.2-2-0.9-3.5-4.5c-2.5-6.2-8.8-22.9-9.5-24.5
		c-0.5-1.3-0.6-1.5-0.9-1.5c-0.2,0-0.4,0.2-0.9,1.6l-9.2,25.2c-0.7,2-1.5,3.6-3.4,3.8c-0.3,0-0.7,0.1-1,0.1c-0.4,0-0.6,0.1-0.6,0.2
		c0,0.2,0.2,0.3,0.8,0.3c1.9,0,4.1-0.1,4.6-0.1s2.1,0.1,3,0.1c0.4,0,0.7-0.1,0.7-0.3c0-0.2-0.1-0.2-0.5-0.2c-0.1,0-0.2,0-0.4,0
		c-0.7,0-1.5-0.4-1.5-1.2c0-0.7,0.2-1.7,0.6-2.7l2.4-7.2c0.1-0.2,0.2-0.3,0.4-0.3h8.7c0.2,0,0.3,0.1,0.4,0.2l3.8,10
		c0.2,0.6,0,1-0.2,1.1c-0.2,0-0.3,0.1-0.3,0.3c0,0.2,0.4,0.2,1.2,0.3c2.8,0.1,5.8,0.1,6.4,0.1c0.4,0,0.8-0.1,0.8-0.3
		C411.3,176.9,411.1,176.9,410.8,176.9z M398.8,164H391c-0.1,0-0.2-0.1-0.1-0.3l3.6-11c0.2-0.6,0.4-0.6,0.6,0l3.9,11
		C399,163.9,399,164,398.8,164z"/>
	<path class="st12" d="M434.4,146.5c-0.2,0-0.5,0.1-1.1,0.2c-0.6,0.1-1.6,0.2-2.9,0.2h-15.2c-0.5,0-2-0.1-3.2-0.2
		c-1.1-0.1-1.5-0.5-1.8-0.5c-0.2,0-0.3,0.5-0.4,0.8c-0.1,0.3-0.9,3.8-0.9,4.2c0,0.2,0.1,0.4,0.2,0.4c0.2,0,0.3-0.1,0.4-0.4
		c0.1-0.3,0.2-0.6,0.7-1.3c0.6-1,1.6-1.3,4.1-1.3c2,0,4,0,6-0.1v17.2c0,3.9,0,7.1-0.2,8.8c-0.2,1.2-0.4,2.1-1.2,2.2
		c-0.4,0.1-0.9,0.2-1.2,0.2c-0.2,0-0.3,0.1-0.3,0.2c0,0.2,0.2,0.3,0.6,0.3c1.2,0,3.8-0.1,4-0.1s2.8,0.1,5,0.1c0.4,0,0.7-0.1,0.7-0.3
		c0-0.1-0.1-0.2-0.3-0.2c-0.4,0-1.3-0.1-1.8-0.2c-1.2-0.2-1.5-1.1-1.6-2.2c-0.2-1.7-0.2-4.9-0.2-8.8v-17.2c1.7,0,3.4,0,5.1,0.1
		c3.9,0.1,4.9,1,5,2.2c0,0.2,0,0.3,0,0.4c0,0.6,0.1,0.7,0.3,0.7c0.2,0,0.3-0.2,0.3-0.5c0-0.4,0.1-3.2,0.1-4.5
		C434.6,146.7,434.6,146.5,434.4,146.5z"/>
	<path class="st12" d="M450.8,176.9c-0.2,0-1.1-0.1-1.7-0.2c-1.2-0.2-1.5-1.1-1.6-2.2c-0.2-1.7-0.2-4.9-0.2-8.8v-7.1
		c0-6.3,0-7.5,0.1-8.8c0.1-1.4,0.4-2.1,1.5-2.3c0.5-0.1,0.7-0.1,1-0.1c0.2,0,0.3-0.1,0.3-0.2c0-0.2-0.2-0.3-0.6-0.3
		c-1.2,0-3.8,0.1-4,0.1s-2.8-0.1-4.1-0.1c-0.4,0-0.6,0.1-0.6,0.3c0,0.2,0.2,0.2,0.3,0.2c0.3,0,0.8,0,1.3,0.2
		c0.9,0.2,1.3,0.9,1.4,2.3c0.1,1.3,0.1,2.4,0.1,8.8v7.1c0,3.9,0,7.1-0.2,8.8c-0.2,1.2-0.4,2.1-1.2,2.3c-0.4,0.1-0.8,0.1-1.1,0.1
		c-0.4,0-0.4,0.1-0.4,0.2c0,0.2,0.2,0.3,0.6,0.3c1.2,0,3.8-0.1,4-0.1s2.8,0.1,5,0.1c0.4,0,0.6-0.1,0.6-0.3
		C451.3,177,451.2,176.9,450.8,176.9z"/>
	<path class="st12" d="M473.4,146.2c-11.2,0-16,9.3-16,15.9c0,7.3,4.6,16,15.7,16c9.8,0,16.2-7.5,16.2-16.6
		C489.3,151.9,482.5,146.2,473.4,146.2z M474.2,176.4c-7.3,0-13-6.1-13-15.5c0-8.9,5.1-13.4,11.9-13.4c6.4,0,12.3,5.2,12.3,15
		C485.4,174.3,477.9,176.4,474.2,176.4z"/>
	<path class="st12" d="M526.9,146.7c-1.7,0-3,0.1-3.5,0.1c-0.4,0-2.4-0.1-4.2-0.1c-0.5,0-0.8,0-0.8,0.3c0,0.2,0.1,0.3,0.6,0.3
		c0.4,0,1,0,1.7,0.2c1.3,0.3,1.5,1.2,1.6,3.9l0.4,20.6c-1.3-1.3-5.7-6.3-9.7-10.6c-6.3-6.7-12.3-13.2-12.9-13.9
		c-0.4-0.4-1.1-1.3-1.4-1.3c-0.3,0-0.4,0.4-0.4,2c0,7.9,0,2.6,0,17.3v6c0,3.7-0.2,4.9-1.2,5.2c-0.6,0.2-1.3,0.2-1.7,0.2
		c-0.2,0-0.3,0.1-0.3,0.2c0,0.3,0.2,0.3,0.6,0.3c1.8,0,3.5-0.1,3.9-0.1s2,0.1,4.3,0.1c0.5,0,0.7-0.1,0.7-0.3c0-0.2-0.1-0.2-0.3-0.2
		c-0.4,0-1.3,0-2-0.2c-1.1-0.3-1.5-1.4-1.6-4.7l-0.5-19.4c1.3,1.5,5.9,6.6,10.6,11.6c4.3,4.6,10.1,10.6,10.6,11
		c2.2,2.2,2.6,2.6,3,2.6c0.3,0,0.4-0.2,0.4-2.9l0.1-23.7c0-2.8,0.3-3.4,1.4-3.7c0.5-0.1,0.7-0.1,1.1-0.2c0.3,0,0.4-0.1,0.4-0.3
		C527.6,146.8,527.4,146.7,526.9,146.7z"/>
	<path class="st12" d="M561,176.9c-0.3,0-1,0-1.6-0.2c-0.9-0.2-2-0.9-3.5-4.5c-2.5-6.2-8.8-22.9-9.5-24.5c-0.5-1.3-0.6-1.5-0.9-1.5
		c-0.2,0-0.4,0.2-0.9,1.6l-9.2,25.2c-0.7,2-1.5,3.6-3.4,3.8c-0.3,0-0.7,0.1-1,0.1c-0.4,0-0.6,0.1-0.6,0.2c0,0.2,0.2,0.3,0.8,0.3
		c1.9,0,4.1-0.1,4.6-0.1s2.1,0.1,3,0.1c0.4,0,0.7-0.1,0.7-0.3c0-0.2-0.1-0.2-0.5-0.2c-0.1,0-0.2,0-0.4,0c-0.7,0-1.5-0.4-1.5-1.2
		c0-0.7,0.2-1.7,0.6-2.7l2.4-7.2c0.1-0.2,0.2-0.3,0.4-0.3h8.7c0.2,0,0.3,0.1,0.4,0.2l3.8,10c0.2,0.6,0,1-0.2,1.1
		c-0.2,0-0.3,0.1-0.3,0.3c0,0.2,0.4,0.2,1.2,0.3c2.8,0.1,5.8,0.1,6.4,0.1c0.4,0,0.8-0.1,0.8-0.3C561.4,176.9,561.2,176.9,561,176.9z
		 M548.9,164h-7.8c-0.1,0-0.2-0.1-0.1-0.3l3.6-11c0.2-0.6,0.4-0.6,0.6,0l3.9,11C549.1,163.9,549.1,164,548.9,164z"/>
	<path class="st12" d="M583.5,171.8c-0.2,0-0.3,0.2-0.4,0.5c-0.1,0.8-0.5,1.8-1.1,2.4c-1,1.2-2.8,1.2-4.9,1.2
		c-3.2,0-4.2-0.3-4.9-0.9c-0.7-0.7-0.9-3.3-0.9-9.3v-7.2c0-6.3,0-7.5,0.1-8.8c0.1-1.4,0.4-2.1,1.6-2.3c0.5-0.1,1.1-0.1,1.3-0.1
		c0.2,0,0.3-0.1,0.3-0.2c0-0.2-0.2-0.3-0.7-0.3c-1.2,0-4.2,0.1-4.4,0.1s-2.8-0.1-4.6-0.1c-0.4,0-0.6,0.1-0.6,0.3
		c0,0.2,0.2,0.2,0.3,0.2c0.4,0,1.1,0,1.4,0.1c1.3,0.3,1.7,0.9,1.7,2.3c0.1,1.3,0.1,2.4,0.1,8.8v7.1c0,3.9,0,7.1-0.2,8.8
		c-0.2,1.2-0.4,2.1-1.2,2.2c-0.4,0.1-0.9,0.2-1.2,0.2c-0.2,0-0.3,0.1-0.3,0.2c0,0.2,0.2,0.3,0.6,0.3c1.5,0,2.7-0.1,4-0.1
		c3.9,0,7.4,0.2,10.9,0.2c2.2,0,2.3-0.2,2.6-1.1c0.3-1.2,0.6-3.6,0.6-4.1S583.7,171.8,583.5,171.8z"/>
	<path class="st12" d="M626.2,146.5c-0.2,0-0.5,0.1-1.1,0.2c-0.6,0.1-1.6,0.2-2.9,0.2H607c-0.5,0-2-0.1-3.2-0.2
		c-1.1-0.1-1.5-0.5-1.8-0.5c-0.2,0-0.3,0.5-0.4,0.8c-0.1,0.3-0.9,3.8-0.9,4.2c0,0.2,0.1,0.4,0.2,0.4c0.2,0,0.3-0.1,0.4-0.4
		c0.1-0.3,0.2-0.6,0.7-1.3c0.6-1,1.6-1.3,4.1-1.3c2,0,4,0,6-0.1v17.2c0,3.9,0,7.1-0.2,8.8c-0.2,1.2-0.4,2.1-1.2,2.2
		c-0.4,0.1-0.9,0.2-1.2,0.2c-0.2,0-0.3,0.1-0.3,0.2c0,0.2,0.2,0.3,0.6,0.3c1.2,0,3.8-0.1,4-0.1c0.2,0,2.8,0.1,5,0.1
		c0.4,0,0.6-0.1,0.6-0.3c0-0.1-0.1-0.2-0.3-0.2c-0.4,0-1.3-0.1-1.8-0.2c-1.2-0.2-1.5-1.1-1.6-2.2c-0.2-1.7-0.2-4.9-0.2-8.8v-17.2
		c1.7,0,3.4,0,5.1,0.1c3.9,0.1,4.9,1,5,2.2c0,0.2,0,0.3,0,0.4c0,0.6,0.1,0.7,0.3,0.7c0.2,0,0.3-0.2,0.3-0.5c0-0.4,0.1-3.2,0.1-4.5
		C626.4,146.7,626.4,146.5,626.2,146.5z"/>
	<path class="st12" d="M690.1,176.9c-0.3,0-1,0-1.6-0.2c-0.9-0.2-2-0.9-3.5-4.5c-2.5-6.2-8.8-22.9-9.5-24.5
		c-0.5-1.3-0.6-1.5-0.9-1.5c-0.2,0-0.4,0.2-0.9,1.6l-9.2,25.2c-0.7,2-1.5,3.6-3.4,3.8c-0.1,0-0.2,0-0.3,0c-1-0.2-2.8-0.6-5-2.9
		c-2.4-2.5-5.1-6.1-8.4-10.4c3.7-3.4,4.9-6.4,4.9-9.4c0-2.8-1.8-4.8-2.8-5.5c-2.2-1.5-4.9-1.8-7.4-1.8c-1.3,0-4.3,0.1-4.8,0.1
		c-0.2,0-2.8-0.1-4.6-0.1c-0.4,0-0.6,0.1-0.6,0.3c0,0.2,0.2,0.2,0.3,0.2c0.4,0,1.1,0,1.4,0.1c1.3,0.3,1.7,0.9,1.7,2.3
		c0.1,1.3,0.1,2.4,0.1,8.8v7.1c0,3.9,0,7.1-0.2,8.8c-0.2,1.2-0.4,2.1-1.2,2.2c-0.4,0.1-0.9,0.2-1.2,0.2c-0.2,0-0.3,0.1-0.3,0.2
		c0,0.2,0.2,0.3,0.6,0.3c1.2,0,3.8-0.1,3.8-0.1c0.2,0,2.8,0.1,5,0.1c0.4,0,0.6-0.1,0.6-0.3c0-0.1-0.1-0.2-0.3-0.2
		c-0.4,0-1.3-0.1-1.8-0.2c-1.2-0.2-1.5-1.1-1.6-2.2c-0.2-1.7-0.2-4.9-0.2-8.8v-1c0-0.2,0.1-0.3,0.3-0.3l5,0.1c0.2,0,0.4,0.1,0.5,0.2
		c0.8,1.1,2.7,3.8,4.4,6c2.3,3,3.7,5,5.5,6c1.1,0.6,2.1,0.8,4.3,0.8h2.9c0.2,0,0.4,0,0.6,0c1.2,0,2.2-0.1,2.5-0.1
		c0.4,0,2.1,0.1,3,0.1c0.4,0,0.7-0.1,0.7-0.3c0-0.2-0.1-0.2-0.5-0.2c-0.1,0-0.2,0-0.4,0c-0.7,0-1.5-0.4-1.5-1.2
		c0-0.7,0.2-1.7,0.6-2.7l2.4-7.2c0.1-0.2,0.2-0.3,0.4-0.3h8.7c0.2,0,0.3,0.1,0.4,0.2l3.8,10c0.2,0.6,0,1-0.2,1.1
		c-0.2,0-0.3,0.1-0.3,0.3c0,0.2,0.4,0.2,1.2,0.3c2.8,0.1,5.8,0.1,6.4,0.1c0.4,0,0.8-0.1,0.8-0.3
		C690.6,176.9,690.4,176.9,690.1,176.9z M646.6,162.4c-0.9,0.6-2.1,0.8-3,0.8c-1.8,0-3.7-0.3-4.3-0.6c-0.2-0.1-0.3-0.3-0.3-0.5
		v-13.3c0-0.2,0.1-0.4,0.3-0.5c0.4-0.1,1.5-0.2,2.7-0.2c4.3,0,7,3,7,8.1C649.1,159.2,648,161.4,646.6,162.4z M678,164h-7.8
		c-0.1,0-0.2-0.1-0.1-0.3l3.6-11c0.2-0.6,0.4-0.6,0.6,0l3.9,11C678.2,163.9,678.2,164,678,164z"/>
	<path class="st12" d="M717.3,146.7c-1.2,0-2.9,0.1-3.2,0.1c-0.5,0-2.4-0.1-4-0.1c-0.6,0-0.9,0.1-0.9,0.3c0,0.2,0.2,0.2,0.4,0.2
		c0.4,0,1.1,0,1.5,0.2c0.4,0.2,0.5,0.6,0.5,0.9c0,0.4-0.2,0.9-0.4,1.5c-0.9,2.9-6.3,17.1-8.7,22.5l-8.3-21.6
		c-0.4-1.1-0.8-2.2-0.8-2.6c0-0.3,0.1-0.6,0.5-0.8c0.4-0.2,1.1-0.2,1.5-0.2c0.3,0,0.4-0.1,0.4-0.3c0-0.2-0.4-0.3-1.1-0.3
		c-1.5,0-3.3,0.1-3.7,0.1c-0.5,0-2.7-0.1-4.6-0.1c-0.6,0-1.1,0-1.1,0.3c0,0.2,0.1,0.3,0.3,0.3c0.2,0,0.9,0,1.5,0.2
		c1.4,0.4,2,0.9,2.9,3.1l9.9,24.9c0.8,1.9,1,2.5,1.5,2.5c0.4,0,0.6-0.6,1.7-3.1c0.9-2,2.8-6.4,5.2-12.3c2.1-5,4.1-9.9,4.5-11
		c1.1-2.8,1.7-3.5,2.2-3.8c0.8-0.5,1.7-0.5,1.9-0.5c0.3,0,0.5-0.1,0.5-0.3C718,146.8,717.8,146.7,717.3,146.7z"/>
	<path class="st12" d="M739.1,171.9c-0.2,0-0.3,0.2-0.4,0.6c-0.3,1.7-0.8,2.6-2.1,3c-1.1,0.3-2.4,0.4-3.7,0.4
		c-1.6,0-2.7-0.1-3.4-0.4c-1-0.4-1.3-1.3-1.3-3c0-0.9,0-5.6,0-6.9v-3.6c0-0.2,0.1-0.3,0.3-0.3c0.7,0,4.7,0.1,5.8,0.2
		c1.5,0.2,1.9,0.7,2.1,1.3c0.1,0.4,0.2,0.8,0.2,1.1c0,0.3,0,0.6,0.3,0.6c0.2,0,0.2-0.2,0.3-0.6c0-0.6,0-1.5,0.2-2.8
		c0.1-1.3,0.3-2,0.3-2.3s-0.1-0.3-0.2-0.3c-0.2,0-0.3,0.2-0.5,0.4c-0.4,0.5-0.9,0.6-2,0.7c-0.9,0.1-5.9,0.1-6.5,0.1
		c-0.2,0-0.2-0.1-0.2-0.4v-11.2c0-0.3,0.1-0.4,0.2-0.4c0.4,0,4.9,0,5.6,0.1c1.8,0.2,2.6,0.6,2.9,1.5c0.1,0.3,0.2,0.8,0.2,1.3
		c0,0.3,0.1,0.5,0.3,0.5c0.2,0,0.3-0.3,0.3-0.7c0.1-1.1,0.1-1.8,0.2-2.4c0.1-1.1,0.3-1.6,0.3-1.9c0-0.2,0-0.4-0.2-0.4
		c-0.1,0-0.2,0-0.4,0.2c-0.2,0.1-1,0.2-1.9,0.2c-0.9,0-9,0-9.3,0c-2.6-0.1-3.7-0.1-4.6-0.1c-0.4,0-0.6,0.1-0.6,0.3
		c0,0.2,0.2,0.2,0.5,0.2c0.4,0,0.9,0,1.2,0.1c1.3,0.3,1.7,0.9,1.7,2.3c0.1,1.3,0.1,2.4,0.1,8.8v7.1c0,3.6,0,5.7-0.1,7.3
		c-0.1,3-0.6,3.6-1.5,3.8c-0.3,0.1-0.5,0.1-0.9,0.1c-0.2,0-0.4,0.1-0.4,0.2c0,0.2,0.2,0.3,0.6,0.3c1.1,0,2-0.1,3-0.1
		c1.6,0,3.5,0.1,5.1,0.1c1.6,0,2.9,0.1,5.9,0.1c1.6,0,1.9,0,2.2-1.1c0.2-0.9,0.5-3.6,0.5-3.9C739.3,172.3,739.3,171.9,739.1,171.9z"
		/>
	<path class="st12" d="M765,171.8c-0.2,0-0.3,0.2-0.4,0.5c-0.1,0.8-0.5,1.8-1.1,2.4c-1,1.2-2.8,1.2-4.9,1.2c-3.2,0-4.2-0.3-4.9-0.9
		c-0.7-0.7-0.9-3.3-0.9-9.3v-7.2c0-6.3,0-7.5,0.1-8.8c0.1-1.4,0.4-2.1,1.6-2.3c0.5-0.1,1.1-0.1,1.3-0.1c0.2,0,0.3-0.1,0.3-0.2
		c0-0.2-0.2-0.3-0.7-0.3c-1.2,0-4.2,0.1-4.4,0.1s-2.8-0.1-4.6-0.1c-0.4,0-0.6,0.1-0.6,0.3c0,0.2,0.2,0.2,0.3,0.2
		c0.4,0,1.1,0,1.4,0.1c1.3,0.3,1.7,0.9,1.7,2.3c0.1,1.3,0.1,2.4,0.1,8.8v7.1c0,3.9,0,7.1-0.2,8.8c-0.2,1.2-0.4,2.1-1.2,2.2
		c-0.4,0.1-0.9,0.2-1.2,0.2c-0.2,0-0.3,0.1-0.3,0.2c0,0.2,0.2,0.3,0.6,0.3c1.5,0,2.7-0.1,4-0.1c3.9,0,7.4,0.2,10.9,0.2
		c2.2,0,2.3-0.2,2.6-1.1c0.3-1.2,0.6-3.6,0.6-4.1S765.2,171.8,765,171.8z"/>
	<rect x="199.3" y="127.5" class="st12" width="567" height="1.5"/>
</g>
</svg>
